<svg width="900" height="280" viewBox="0 0 900 280" fill="none" xmlns="http://www.w3.org/2000/svg">
  <path d="M18 41C76 21 129 18 180 34C238 52 280 55 334 41C379 29 432 27 489 40C549 53 591 54 645 38C706 20 765 18 830 34" stroke="white" stroke-opacity="0.26" stroke-width="6" stroke-linecap="round"/>
  <path d="M70 122C126 106 180 105 241 118C291 129 347 131 405 119C470 105 525 104 584 118C646 133 703 134 766 117C808 106 846 102 883 108" stroke="white" stroke-opacity="0.2" stroke-width="5" stroke-linecap="round"/>
  <path d="M23 201C84 184 134 181 192 194C245 206 301 208 360 196C422 184 482 184 540 197C597 210 653 213 712 201C768 190 823 186 877 193" stroke="white" stroke-opacity="0.18" stroke-width="4" stroke-linecap="round"/>
  <path d="M189 258C232 247 278 245 323 255C372 266 410 268 458 258C505 248 549 247 598 255C639 263 679 264 719 256" stroke="white" stroke-opacity="0.12" stroke-width="3" stroke-linecap="round"/>
</svg>
